<svg width="27" height="26" viewBox="0 0 27 26" fill="none" xmlns="http://www.w3.org/2000/svg">
<path d="M13.0272 2.34147C16.5026 2.34147 16.9142 2.35671 18.281 2.41766C19.5513 2.47353 20.2372 2.68685 20.6945 2.86462C21.2992 3.09826 21.7362 3.38269 22.1884 3.83473C22.6457 4.29185 22.9251 4.72358 23.1589 5.32799C23.3367 5.78511 23.5501 6.47587 23.606 7.74057C23.667 9.11194 23.6822 9.52334 23.6822 12.9924C23.6822 16.4665 23.667 16.8779 23.606 18.2442C23.5501 19.514 23.3367 20.1996 23.1589 20.6568C22.9251 21.2612 22.6406 21.698 22.1884 22.15C21.7311 22.6072 21.2992 22.8865 20.6945 23.1201C20.2372 23.2979 19.5462 23.5112 18.281 23.5671C16.9091 23.6281 16.4975 23.6433 13.0272 23.6433C9.55168 23.6433 9.14011 23.6281 7.77329 23.5671C6.50302 23.5112 5.81707 23.2979 5.35977 23.1201C4.75512 22.8865 4.31814 22.6021 3.86593 22.15C3.40863 21.6929 3.12917 21.2612 2.89543 20.6568C2.7176 20.1996 2.50419 19.5089 2.4483 18.2442C2.38732 16.8728 2.37208 16.4614 2.37208 12.9924C2.37208 9.51827 2.38732 9.10686 2.4483 7.74057C2.50419 6.47079 2.7176 5.78511 2.89543 5.32799C3.12917 4.72358 3.41371 4.28677 3.86593 3.83473C4.32322 3.37761 4.75512 3.09826 5.35977 2.86462C5.81707 2.68685 6.5081 2.47353 7.77329 2.41766C9.14011 2.35671 9.55168 2.34147 13.0272 2.34147ZM13.0272 0C9.49579 0 9.05373 0.0152373 7.66659 0.0761868C6.28453 0.137136 5.33436 0.360617 4.51123 0.680602C3.65252 1.01582 2.92592 1.45771 2.20441 2.18402C1.47781 2.90525 1.03575 3.63157 0.700399 4.48486C0.380289 5.31276 0.156721 6.25747 0.0957478 7.63899C0.0347746 9.03067 0.0195312 9.47255 0.0195312 13.0025C0.0195312 16.5325 0.0347746 16.9744 0.0957478 18.361C0.156721 19.7425 0.380289 20.6923 0.700399 21.5151C1.03575 22.3735 1.47781 23.0998 2.20441 23.8211C2.92592 24.5423 3.65252 24.9893 4.50614 25.3194C5.33436 25.6394 6.27945 25.8629 7.66151 25.9238C9.04865 25.9848 9.49071 26 13.0221 26C16.5534 26 16.9955 25.9848 18.3826 25.9238C19.7647 25.8629 20.7149 25.6394 21.538 25.3194C22.3916 24.9893 23.1182 24.5423 23.8397 23.8211C24.5613 23.0998 25.0084 22.3735 25.3387 21.5202C25.6588 20.6923 25.8823 19.7476 25.9433 18.3661C26.0043 16.9795 26.0195 16.5376 26.0195 13.0076C26.0195 9.47763 26.0043 9.03575 25.9433 7.64915C25.8823 6.26763 25.6588 5.31784 25.3387 4.49502C25.0186 3.63157 24.5765 2.90525 23.8499 2.18402C23.1284 1.46279 22.4018 1.01582 21.5482 0.685681C20.7199 0.365696 19.7749 0.142215 18.3928 0.0812659C17.0006 0.0152374 16.5585 0 13.0272 0Z" fill="black"/>
<path d="M13.0269 6.32324C9.33798 6.32324 6.34521 9.31484 6.34521 13.0023C6.34521 16.6897 9.33798 19.6813 13.0269 19.6813C16.7157 19.6813 19.7085 16.6897 19.7085 13.0023C19.7085 9.31484 16.7157 6.32324 13.0269 6.32324ZM13.0269 17.3348C10.6337 17.3348 8.69268 15.3945 8.69268 13.0023C8.69268 10.61 10.6337 8.66979 13.0269 8.66979C15.4201 8.66979 17.361 10.61 17.361 13.0023C17.361 15.3945 15.4201 17.3348 13.0269 17.3348Z" fill="black"/>
<path d="M21.5329 6.05929C21.5329 6.92274 20.8317 7.61858 19.973 7.61858C19.1092 7.61858 18.4131 6.91766 18.4131 6.05929C18.4131 5.19584 19.1143 4.5 19.973 4.5C20.8317 4.5 21.5329 5.20092 21.5329 6.05929Z" fill="black"/>
</svg>
