<svg width="23" height="23" viewBox="0 0 23 23" fill="none" xmlns="http://www.w3.org/2000/svg">
<path d="M22.3097 21.378L16.9622 16.0317C18.3967 14.3829 19.2651 12.2317 19.2651 9.88049C19.2651 4.70488 15.0544 0.5 9.88257 0.5C4.70581 0.5 0.5 4.70976 0.5 9.88049C0.5 15.0512 4.71069 19.261 9.88257 19.261C12.2343 19.261 14.386 18.3927 16.0352 16.9585L21.3827 22.3049C21.5095 22.4317 21.6803 22.5 21.8462 22.5C22.0121 22.5 22.1829 22.4366 22.3097 22.3049C22.5634 22.0512 22.5634 21.6317 22.3097 21.378ZM1.81249 9.88049C1.81249 5.43171 5.4328 1.81707 9.87769 1.81707C14.3275 1.81707 17.9429 5.43659 17.9429 9.88049C17.9429 14.3244 14.3275 17.9488 9.87769 17.9488C5.4328 17.9488 1.81249 14.3293 1.81249 9.88049Z" fill="black"/>
</svg>
